HIERARCHY
ROOT hip
{
	OFFSET 0.000000 103.560692 0.219151
	CHANNELS 6 Xposition Yposition Zposition Zrotation Xrotation Yrotation
	JOINT pelvis
	{
		OFFSET 0.000000 1.955040 1.591925
		CHANNELS 3 Zrotation Xrotation Yrotation
		JOINT lThigh
		{
			OFFSET 8.341582 -7.629402 -0.646910
			CHANNELS 3 Zrotation Xrotation Yrotation
			JOINT lShin
			{
				OFFSET 2.185763 -45.093132 -0.705710
				CHANNELS 3 Zrotation Xrotation Yrotation
				JOINT lFoot
				{
					OFFSET 0.730976 -46.379768 -2.264282
					CHANNELS 3 Zrotation Xrotation Yrotation
					JOINT lToe
					{
						OFFSET 2.797621 -4.200020 10.742415
						CHANNELS 3 Zrotation Xrotation Yrotation
						JOINT lBigToe
						{
							OFFSET -2.433708 -0.269072 1.841711
							CHANNELS 3 Zrotation Xrotation Yrotation
							End Site
							{
								OFFSET -10.527346 -33.657166 -1.340707
							}
						}
					}
				}
			}
		}
		JOINT rThigh
		{
			OFFSET -8.341582 -7.629402 -0.646910
			CHANNELS 3 Zrotation Xrotation Yrotation
			JOINT rShin
			{
				OFFSET -2.185763 -45.093132 -0.705710
				CHANNELS 3 Zrotation Xrotation Yrotation
				JOINT rFoot
				{
					OFFSET -0.730976 -46.379768 -2.264282
					CHANNELS 3 Zrotation Xrotation Yrotation
					JOINT rToe
					{
						OFFSET -2.797621 -4.200019 10.742415
						CHANNELS 3 Zrotation Xrotation Yrotation
						JOINT rBigToe
						{
							OFFSET 2.433708 -0.269072 1.841711
							CHANNELS 3 Zrotation Xrotation Yrotation
							End Site
							{
								OFFSET 0.000000 24.298409 -0.425647
							}
						}
					}
				}
			}
		}
	}
	JOINT abdomen
	{
		OFFSET 0.000000 1.841293 -3.551421
		CHANNELS 3 Zrotation Xrotation Yrotation
		JOINT abdomen2
		{
			OFFSET 0.000000 5.439911 3.419600
			CHANNELS 3 Zrotation Xrotation Yrotation
			JOINT chest
			{
				OFFSET 0.000000 14.715073 -2.918270
				CHANNELS 3 Zrotation Xrotation Yrotation
				JOINT neck
				{
					OFFSET 0.000000 26.294655 -1.248052
					CHANNELS 3 Zrotation Xrotation Yrotation
					JOINT head
					{
						OFFSET 0.000000 8.807068 1.063695
						CHANNELS 3 Zrotation Xrotation Yrotation
						JOINT rEye
						{
							OFFSET -3.030866 6.632080 7.702687
							CHANNELS 3 Zrotation Xrotation Yrotation
							End Site
							{
								OFFSET 2.969555 -11.022598 8.626689
							}
						}
						JOINT lEye
						{
							OFFSET 3.030866 6.632080 7.702687
							CHANNELS 3 Zrotation Xrotation Yrotation
							End Site
							{
								OFFSET 0.000000 -15.881760 10.104412
							}
						}
						JOINT upperJaw
						{
							OFFSET 0.000000 1.922699 2.891887
							CHANNELS 3 Zrotation Xrotation Yrotation
							End Site
							{
								OFFSET 0.000000 -19.386169 10.230839
							}
						}
						JOINT lowerJaw
						{
							OFFSET 0.000000 1.857620 2.686640
							CHANNELS 3 Zrotation Xrotation Yrotation
							JOINT tongueBase
							{
								OFFSET 0.000000 -3.019135 2.746916
								CHANNELS 3 Zrotation Xrotation Yrotation
								JOINT tongue01
								{
									OFFSET 0.000000 0.664124 0.223355
									CHANNELS 3 Zrotation Xrotation Yrotation
									JOINT tongue02
									{
										OFFSET 0.000000 0.339737 0.715627
										CHANNELS 3 Zrotation Xrotation Yrotation
										JOINT tongue03
										{
											OFFSET 0.000000 0.123444 0.730634
											CHANNELS 3 Zrotation Xrotation Yrotation
											JOINT tongue04
											{
												OFFSET 0.000000 0.017212 0.737415
												CHANNELS 3 Zrotation Xrotation Yrotation
												JOINT tongue05
												{
													OFFSET 0.000000 -0.021011 0.632440
													CHANNELS 3 Zrotation Xrotation Yrotation
													JOINT tongueTip
													{
														OFFSET 0.000000 -0.014404 0.601796
														CHANNELS 3 Zrotation Xrotation Yrotation
														End Site
														{
															OFFSET -14.139406 -2.625778 0.472826
														}
													}
												}
											}
										}
									}
								}
							}
						}
					}
				}
				JOINT rCollar
				{
					OFFSET -2.109295 21.452370 3.768136
					CHANNELS 3 Zrotation Xrotation Yrotation
					JOINT rShldr
					{
						OFFSET -11.491621 -2.568573 -4.940255
						CHANNELS 3 Zrotation Xrotation Yrotation
						JOINT rForeArm
						{
							OFFSET -28.789030 -0.213806 2.098380
							CHANNELS 3 Zrotation Xrotation Yrotation
							JOINT rHand
							{
								OFFSET -22.260895 -0.869583 10.391586
								CHANNELS 3 Zrotation Xrotation Yrotation
								JOINT rThumb1
								{
									OFFSET -0.628075 0.137405 2.362409
									CHANNELS 3 Zrotation Xrotation Yrotation
									JOINT rThumb2
									{
										OFFSET 0.085205 -0.600235 3.826079
										CHANNELS 3 Zrotation Xrotation Yrotation
										JOINT rThumb3
										{
											OFFSET -1.255478 -0.879211 2.439162
											CHANNELS 3 Zrotation Xrotation Yrotation
											End Site
											{
												OFFSET -2.963715 0.538574 4.059553
											}
										}
									}
								}
								JOINT rCarpal1
								{
									OFFSET -0.855530 1.026047 1.621985
									CHANNELS 3 Zrotation Xrotation Yrotation
									JOINT rIndex1
									{
										OFFSET -3.951324 0.390884 3.873290
										CHANNELS 3 Zrotation Xrotation Yrotation
										JOINT rIndex2
										{
											OFFSET -3.071884 -1.259598 2.506104
											CHANNELS 3 Zrotation Xrotation Yrotation
											JOINT rIndex3
											{
												OFFSET -1.394112 -1.446640 1.203302
												CHANNELS 3 Zrotation Xrotation Yrotation
												End Site
												{
													OFFSET -3.392448 -1.258026 0.533405
												}
											}
										}
									}
									JOINT rMid1
									{
										OFFSET -5.422974 0.107910 2.002650
										CHANNELS 3 Zrotation Xrotation Yrotation
										JOINT rMid2
										{
											OFFSET -3.599533 -1.323776 2.090647
											CHANNELS 3 Zrotation Xrotation Yrotation
											JOINT rMid3
											{
												OFFSET -1.360191 -1.598495 1.068055
												CHANNELS 3 Zrotation Xrotation Yrotation
												End Site
												{
													OFFSET -4.087769 -0.460876 0.069540
												}
											}
										}
									}
								}
								JOINT rCarpal2
								{
									OFFSET -1.942749 0.556229 -0.337217
									CHANNELS 3 Zrotation Xrotation Yrotation
									JOINT rRing1
									{
										OFFSET -4.762787 -0.121170 2.349089
										CHANNELS 3 Zrotation Xrotation Yrotation
										JOINT rRing2
										{
											OFFSET -3.380348 -1.337097 1.356700
											CHANNELS 3 Zrotation Xrotation Yrotation
											JOINT rRing3
											{
												OFFSET -1.430290 -1.499649 0.914224
												CHANNELS 3 Zrotation Xrotation Yrotation
												End Site
												{
													OFFSET -1.783272 -2.215851 -0.391895
												}
											}
										}
									}
									JOINT rPinky1
									{
										OFFSET -5.232559 -1.313721 0.336493
										CHANNELS 3 Zrotation Xrotation Yrotation
										JOINT rPinky2
										{
											OFFSET -2.217606 -1.389603 0.800693
											CHANNELS 3 Zrotation Xrotation Yrotation
											JOINT rPinky3
											{
												OFFSET -0.886887 -1.462280 0.774199
												CHANNELS 3 Zrotation Xrotation Yrotation
												End Site
												{
													OFFSET 14.139406 -2.625778 0.472826
												}
											}
										}
									}
								}
							}
						}
					}
				}
				JOINT lCollar
				{
					OFFSET 2.109295 21.452370 3.768136
					CHANNELS 3 Zrotation Xrotation Yrotation
					JOINT lShldr
					{
						OFFSET 11.491621 -2.568573 -4.940255
						CHANNELS 3 Zrotation Xrotation Yrotation
						JOINT lForeArm
						{
							OFFSET 28.789030 -0.213806 2.098380
							CHANNELS 3 Zrotation Xrotation Yrotation
							JOINT lHand
							{
								OFFSET 22.260895 -0.869583 10.391586
								CHANNELS 3 Zrotation Xrotation Yrotation
								JOINT lThumb1
								{
									OFFSET 0.628075 0.137405 2.362409
									CHANNELS 3 Zrotation Xrotation Yrotation
									JOINT lThumb2
									{
										OFFSET -0.085205 -0.600235 3.826079
										CHANNELS 3 Zrotation Xrotation Yrotation
										JOINT lThumb3
										{
											OFFSET 1.255478 -0.879211 2.439162
											CHANNELS 3 Zrotation Xrotation Yrotation
											End Site
											{
												OFFSET 2.963715 0.538574 4.059553
											}
										}
									}
								}
								JOINT lCarpal1
								{
									OFFSET 0.855530 1.026047 1.621985
									CHANNELS 3 Zrotation Xrotation Yrotation
									JOINT lIndex1
									{
										OFFSET 3.951324 0.390884 3.873290
										CHANNELS 3 Zrotation Xrotation Yrotation
										JOINT lIndex2
										{
											OFFSET 3.071884 -1.259598 2.506104
											CHANNELS 3 Zrotation Xrotation Yrotation
											JOINT lIndex3
											{
												OFFSET 1.394112 -1.446640 1.203302
												CHANNELS 3 Zrotation Xrotation Yrotation
												End Site
												{
													OFFSET 3.392448 -1.258026 0.533405
												}
											}
										}
									}
									JOINT lMid1
									{
										OFFSET 5.422974 0.107910 2.002650
										CHANNELS 3 Zrotation Xrotation Yrotation
										JOINT lMid2
										{
											OFFSET 3.599533 -1.323776 2.090647
											CHANNELS 3 Zrotation Xrotation Yrotation
											JOINT lMid3
											{
												OFFSET 1.360191 -1.598495 1.068055
												CHANNELS 3 Zrotation Xrotation Yrotation
												End Site
												{
													OFFSET 4.087769 -0.460876 0.069540
												}
											}
										}
									}
								}
								JOINT lCarpal2
								{
									OFFSET 1.942749 0.556229 -0.337217
									CHANNELS 3 Zrotation Xrotation Yrotation
									JOINT lRing1
									{
										OFFSET 4.762787 -0.121170 2.349089
										CHANNELS 3 Zrotation Xrotation Yrotation
										JOINT lRing2
										{
											OFFSET 3.380348 -1.337097 1.356700
											CHANNELS 3 Zrotation Xrotation Yrotation
											JOINT lRing3
											{
												OFFSET 1.430290 -1.499649 0.914224
												CHANNELS 3 Zrotation Xrotation Yrotation
												End Site
												{
													OFFSET 1.783272 -2.215851 -0.391895
												}
											}
										}
									}
									JOINT lPinky1
									{
										OFFSET 5.232559 -1.313721 0.336493
										CHANNELS 3 Zrotation Xrotation Yrotation
										JOINT lPinky2
										{
											OFFSET 2.217606 -1.389603 0.800693
											CHANNELS 3 Zrotation Xrotation Yrotation
											JOINT lPinky3
											{
												OFFSET 0.886887 -1.462280 0.774199
												CHANNELS 3 Zrotation Xrotation Yrotation
												End Site
												{
													OFFSET -10.295957 -17.050110 17.461308
												}
											}
										}
									}
								}
							}
						}
					}
				}
				JOINT rPectoral
				{
					OFFSET -6.358840 6.360771 6.369920
					CHANNELS 3 Zrotation Xrotation Yrotation
					End Site
					{
						OFFSET 10.295957 -17.050110 17.461308
					}
				}
				JOINT lPectoral
				{
					OFFSET 6.358840 6.360771 6.369920
					CHANNELS 3 Zrotation Xrotation Yrotation
					End Site
					{
						OFFSET 10.295957 -17.050110 17.461308
					}
				}
			}
		}
	}
}
MOTION
Frames:	5
Frame Time:	0.0333333
26.406494 -1.741950 3.876612 8.698322 6.112919 -10.675445 0.000000 0.000000 0.000000 -1.029817 -10.940329 -5.851723 -5.372225 9.465524 -7.035426 3.518914 -26.296947 -8.011686 3.670217 -3.583659 2.228019 0.000000 0.000000 0.000000 -30.726784 -19.834961 -20.588438 6.743377 19.567823 -13.930195 3.996900 -14.916191 4.749316 -5.094266 -7.531889 -1.595888 0.000000 0.000000 0.000000 6.944122 -14.946157 3.768201 0.000000 0.000000 0.000000 -21.085640 12.852601 8.301079 -0.409589 -14.951158 0.524862 8.507415 8.106588 -1.957340 0.000000 0.000000 0.000000 0.000000 0.000000 0.000000 0.000000 0.000000 0.000000 0.000000 0.000000 0.000000 0.000000 0.000000 0.000000 0.000000 0.000000 0.000000 0.000000 0.000000 0.000000 0.000000 0.000000 0.000000 0.000000 0.000000 0.000000 0.000000 0.000000 0.000000 0.000000 0.000000 0.000000 11.887708 0.175092 -2.672214 4.086243 63.322861 46.272388 18.557411 7.995378 34.489998 -16.132225 -20.210737 45.412731 -20.446468 -9.412769 22.427561 -1.529515 -15.159598 23.081085 7.640462 2.612418 32.295944 0.000000 0.000000 0.000000 -27.850754 -16.252701 -20.346296 -6.393799 -3.519008 -1.666764 -6.538466 -4.041526 -1.240734 -21.455143 -9.005896 -10.289766 -4.326402 0.581005 -4.067935 -0.932202 3.505625 -2.306283 0.000000 0.000000 0.000000 -26.631449 -12.490226 -8.440379 2.220378 3.871122 -6.821414 -3.087831 6.368403 -3.960281 -43.778633 -22.247227 -24.375582 7.083150 8.138340 -7.062398 14.521862 15.488733 -3.105959 -6.181292 -0.404978 6.390738 -24.277576 53.489262 -5.421356 1.489416 7.856709 -58.599731 11.660128 -10.784935 -35.169113 13.024438 -7.462419 -12.185086 2.211992 -14.936773 -20.647295 -6.265404 -0.239378 -30.293133 0.000000 0.000000 0.000000 28.182926 -16.114195 20.232895 6.677416 -5.485761 0.171271 1.352795 0.110699 0.897821 22.339128 -9.255138 10.760451 5.642807 0.061725 4.297620 -1.812679 4.960068 1.575869 0.000000 0.000000 0.000000 27.391224 -11.725253 10.242653 -0.402934 4.068884 6.585175 -6.972777 8.543273 0.396965 44.294380 -21.261692 25.297497 -5.435171 8.177032 6.698552 -19.686218 10.557853 -2.120795 0.096915 -0.004711 -0.284564 -0.208826 -0.010752 0.613237 
25.793375 -1.789879 3.958234 8.712814 5.889679 -11.176285 0.000000 0.000000 0.000000 -0.757239 -10.626099 -5.990191 -5.297047 9.572642 -6.332157 3.227796 -26.579210 -7.983922 3.645869 -3.448425 2.259701 0.000000 0.000000 0.000000 -30.534403 -20.272299 -20.709280 6.298689 20.630533 -12.427386 4.911085 -15.599130 6.161374 -4.936521 -7.783734 -1.621108 0.000000 0.000000 0.000000 7.089889 -14.198164 4.023406 0.000000 0.000000 0.000000 -21.360723 12.430488 8.487830 -0.259834 -15.132191 0.430275 8.483388 8.135727 -2.019204 0.000000 0.000000 0.000000 0.000000 0.000000 0.000000 0.000000 0.000000 0.000000 0.000000 0.000000 0.000000 0.000000 0.000000 0.000000 0.000000 0.000000 0.000000 0.000000 0.000000 0.000000 0.000000 0.000000 0.000000 0.000000 0.000000 0.000000 0.000000 0.000000 0.000000 0.000000 0.000000 0.000000 11.990326 0.186159 -2.618408 3.710201 63.202930 46.685532 18.618483 8.177575 34.313377 -16.022112 -20.168549 46.069881 -20.392996 -9.417543 22.165138 -1.529515 -15.159598 23.081085 7.618735 2.620391 32.273331 0.000000 0.000000 0.000000 -27.852526 -16.251280 -20.350077 -6.394216 -3.518992 -1.666611 -6.544156 -4.047370 -1.241377 -21.454979 -9.005664 -10.289416 -4.323385 0.582643 -4.067371 -0.930996 3.506574 -2.305790 0.000000 0.000000 0.000000 -26.631336 -12.488407 -8.438584 2.224459 3.872538 -6.819918 -3.088203 6.368956 -3.960812 -43.776211 -22.248329 -24.373178 7.096614 8.143543 -7.057598 14.526770 15.491200 -3.102388 -6.202364 -0.407798 6.407527 -23.818331 53.516621 -5.779365 1.702459 7.977402 -58.766273 11.555387 -10.702267 -34.809284 13.023704 -7.472423 -12.167784 2.216677 -14.935925 -20.630331 -6.259331 -0.245393 -30.288260 0.000000 0.000000 0.000000 28.182344 -16.117403 20.231049 6.677448 -5.485427 0.171032 1.349920 0.113067 0.897328 22.336876 -9.253935 10.760204 5.641508 0.062753 4.297566 -1.813120 4.960403 1.575809 0.000000 0.000000 0.000000 27.388151 -11.725140 10.242992 -0.401732 4.068874 6.585540 -6.975482 8.544274 0.396588 44.292614 -21.260866 25.300100 -5.434002 8.177323 6.699522 -19.690027 10.561340 -2.121333 0.095377 -0.004633 -0.280047 -0.209391 -0.010784 0.614897 
24.734854 -1.897901 4.087737 8.608677 5.725502 -11.232525 0.000000 0.000000 0.000000 -0.260928 -10.336911 -5.944794 -4.932966 9.882670 -6.388492 2.778974 -27.146347 -7.918513 3.705066 -3.603978 2.257636 0.000000 0.000000 0.000000 -30.015854 -20.401169 -19.241146 5.977241 21.499847 -9.788477 6.108246 -17.340414 8.199657 -4.919799 -7.785565 -1.617135 0.000000 0.000000 0.000000 6.818634 -13.760284 3.818715 0.000000 0.000000 0.000000 -21.050022 12.437131 8.266186 -0.194862 -15.402492 0.636608 8.458693 7.997235 -1.762238 0.000000 0.000000 0.000000 0.000000 0.000000 0.000000 0.000000 0.000000 0.000000 0.000000 0.000000 0.000000 0.000000 0.000000 0.000000 0.000000 0.000000 0.000000 0.000000 0.000000 0.000000 0.000000 0.000000 0.000000 0.000000 0.000000 0.000000 0.000000 0.000000 0.000000 0.000000 0.000000 0.000000 11.943017 0.202577 -2.530794 2.661417 63.084641 47.696972 18.529789 8.333920 34.171753 -15.736333 -19.986492 45.586323 -20.323118 -9.414632 21.903069 -1.529515 -15.159598 23.081085 7.598564 2.618833 32.250641 0.000000 0.000000 0.000000 -27.854034 -16.249519 -20.353706 -6.394633 -3.518974 -1.666445 -6.549668 -4.053045 -1.241999 -21.454815 -9.005419 -10.289047 -4.320429 0.584242 -4.066812 -0.929878 3.507458 -2.305311 0.000000 0.000000 0.000000 -26.631212 -12.486648 -8.436845 2.227595 3.873620 -6.818354 -3.088753 6.369427 -3.961503 -43.773220 -22.249729 -24.370216 7.096300 8.143440 -7.053158 14.528606 15.492116 -3.100883 -6.280398 -0.420650 6.484938 -23.941708 53.451077 -5.511098 2.620984 8.103300 -58.919720 11.810827 -10.912558 -34.986931 13.015834 -7.483248 -12.165093 2.220914 -14.935151 -20.614944 -6.257535 -0.250474 -30.286453 0.000000 0.000000 0.000000 28.181862 -16.120224 20.229416 6.677479 -5.485098 0.170777 1.346783 0.115651 0.896788 22.334602 -9.252716 10.759961 5.640176 0.063807 4.297510 -1.813565 4.960742 1.575749 0.000000 0.000000 0.000000 27.385284 -11.725079 10.243336 -0.400270 4.068843 6.585965 -6.978141 8.545256 0.396216 44.291962 -21.260569 25.301128 -5.430220 8.177568 6.702003 -19.692968 10.564139 -2.121753 0.092434 -0.004483 -0.271404 -0.211980 -0.010931 0.622500 
23.717556 -1.877710 4.202256 8.233499 5.529791 -10.679573 0.000000 0.000000 0.000000 0.581596 -9.947171 -6.387863 -4.922834 9.899273 -6.545979 2.300651 -27.059731 -7.907437 3.745326 -3.660978 2.276631 0.000000 0.000000 0.000000 -29.078745 -19.876228 -17.539726 5.553525 21.506704 -6.193648 6.218889 -18.709517 8.035595 -4.860696 -7.897606 -1.624914 0.000000 0.000000 0.000000 6.345739 -13.315294 3.261317 0.000000 0.000000 0.000000 -20.360619 12.350363 7.682051 -0.160797 -15.242221 0.805156 8.543223 7.681545 -1.576694 0.000000 0.000000 0.000000 0.000000 0.000000 0.000000 0.000000 0.000000 0.000000 0.000000 0.000000 0.000000 0.000000 0.000000 0.000000 0.000000 0.000000 0.000000 0.000000 0.000000 0.000000 0.000000 0.000000 0.000000 0.000000 0.000000 0.000000 0.000000 0.000000 0.000000 0.000000 0.000000 0.000000 12.007116 0.226758 -2.408262 1.364213 62.692516 48.811745 18.887173 8.779323 34.169964 -16.128784 -20.373365 45.482365 -20.237221 -9.405237 21.641195 -1.529515 -15.159598 23.081085 7.580272 2.608464 32.228901 0.000000 0.000000 0.000000 -27.855000 -16.247404 -20.356903 -6.395027 -3.518956 -1.666278 -6.554668 -4.058207 -1.242561 -21.454645 -9.005172 -10.288672 -4.317713 0.585705 -4.066292 -0.928909 3.508232 -2.304874 0.000000 0.000000 0.000000 -26.631090 -12.485065 -8.435279 2.229479 3.874280 -6.816812 -3.089476 6.369799 -3.962320 -43.769844 -22.251343 -24.366873 7.082629 8.138591 -7.048687 14.514536 15.484986 -3.098867 -6.301478 -0.426660 6.523696 -24.187443 53.528675 -5.333047 2.423402 8.239732 -58.673935 12.114698 -11.159425 -34.938587 13.001037 -7.494995 -12.175617 2.224398 -14.934516 -20.602264 -6.260130 -0.256102 -30.291267 0.000000 0.000000 0.000000 28.181496 -16.122437 20.228125 6.677512 -5.484797 0.170522 1.343574 0.118294 0.896233 22.332439 -9.251551 10.759734 5.638891 0.064825 4.297457 -1.813988 4.961064 1.575691 0.000000 0.000000 0.000000 27.382864 -11.725058 10.243648 -0.398634 4.068789 6.586411 -6.980577 8.546153 0.395875 44.297062 -21.265381 25.302807 -5.423919 8.177835 6.705126 -19.694750 10.565901 -2.122007 0.088585 -0.004287 -0.260101 -0.213257 -0.011004 0.626253 
22.895861 -1.932056 4.302588 8.092932 5.590107 -10.710413 0.000000 0.000000 0.000000 1.043442 -9.841694 -6.126647 -4.563455 9.995468 -6.713416 1.803570 -27.300608 -7.886339 3.676664 -3.621981 2.333992 0.000000 0.000000 0.000000 -28.595316 -20.216698 -15.175736 5.627705 22.066463 -4.510665 6.889903 -19.730507 8.890994 -4.616716 -8.320511 -1.664108 0.000000 0.000000 0.000000 6.505314 -13.202149 3.406497 0.000000 0.000000 0.000000 -20.495729 12.492158 7.807338 0.088223 -15.565168 0.764530 8.374043 7.614010 -1.514409 0.000000 0.000000 0.000000 0.000000 0.000000 0.000000 0.000000 0.000000 0.000000 0.000000 0.000000 0.000000 0.000000 0.000000 0.000000 0.000000 0.000000 0.000000 0.000000 0.000000 0.000000 0.000000 0.000000 0.000000 0.000000 0.000000 0.000000 0.000000 0.000000 0.000000 0.000000 0.000000 0.000000 11.903651 0.215709 -2.461661 2.036556 62.559357 48.091854 18.236626 8.855276 34.289722 -16.142733 -20.436914 45.672306 -20.136482 -9.388863 21.380102 -1.529515 -15.159598 23.081085 7.562788 2.589443 32.207138 0.000000 0.000000 0.000000 -27.855263 -16.244755 -20.359711 -6.395408 -3.518935 -1.666103 -6.559316 -4.063016 -1.243082 -21.454470 -9.004917 -10.288287 -4.315151 0.587080 -4.065795 -0.928046 3.508927 -2.304464 0.000000 0.000000 0.000000 -26.630981 -12.483623 -8.433847 2.230098 3.874527 -6.815238 -3.090411 6.370106 -3.963299 -43.766010 -22.253193 -24.363091 7.056298 8.129480 -7.043927 14.493919 15.473876 -3.097965 -6.281803 -0.407534 6.391206 -23.383642 53.678898 -6.245800 2.475461 8.543443 -58.252594 12.441623 -11.424437 -35.033352 12.979528 -7.507598 -12.198972 2.227209 -14.934000 -20.592010 -6.265505 -0.261533 -30.299833 0.000000 0.000000 0.000000 28.181246 -16.124086 20.227171 6.677547 -5.484510 0.170260 1.340210 0.121066 0.895649 22.330318 -9.250403 10.759519 5.637611 0.065840 4.297404 -1.814401 4.961379 1.575634 0.000000 0.000000 0.000000 27.380867 -11.725066 10.243920 -0.396785 4.068707 6.586892 -6.982860 8.546992 0.395555 44.306080 -21.273943 25.305281 -5.414899 8.178210 6.708234 -19.695366 10.566526 -2.122096 0.090107 -0.004365 -0.264572 -0.208945 -0.010759 0.613587 
